{"title":"Rick Ross Ft. Young Jeezy - War Ready [Explicit] 1080p [Sbyky]","uid":9738529,"size":122437944,"categoryP":"video","categoryS":"music_videos","magnet":"?xt=urn:btih:9e13074d13d4d9e051c8f945596b9ea095fa1593&amp;dn=Rick+Ross+Ft.+Young+Jeezy+-+War+Ready+%5BExplicit%5D+1080p+%5BSbyky%5D&amp;tr=udp%3A%2F%2Ftracker.openbittorrent.com%3A80&amp;tr=udp%3A%2F%2Fopen.demonii.com%3A1337&amp;tr=udp%3A%2F%2Ftracker.coppersurfer.tk%3A6969&amp;tr=udp%3A%2F%2Fexodus.desync.com%3A6969","seeders":4,"leechers":1,"uploader":"Sbyky","files":1,"time":1394472589,"description":"\n\nGeneral\nComplete name                            : Rick Ross Ft. Young Jeezy - War Ready [Explicit] 1080p [Sbyky].MP4\nFormat                                   : MPEG-4\nFormat profile                           : Base Media\nCodec ID                                 : isom\nFile size                                : 117 MiB\nDuration                                 : 6mn 12s\nOverall bit rate mode                    : Variable\nOverall bit rate                         : 2 633 Kbps\nEncoded date                             : UTC 2014-03-06 18:25:06\nTagged date                              : UTC 2014-03-06 18:25:06\n\nVideo\nID                                       : 1\nFormat                                   : AVC\nFormat/Info                              : Advanced Video Codec\nFormat profile                           : &lt;a class=&quot;__cf_email__&quot; href=&quot;/cdn-cgi/l/email-protection&quot; data-cfemail=&quot;034b6a646b434f372d33&quot;&gt;[email&amp;#160;protected]&lt;/a&gt;&lt;script cf-hash='f9e31' type=&quot;text/javascript&quot;&gt;\n/* &lt;![CDATA[ */!function(){try{var t=&quot;currentScript&quot;in document?document.currentScript:function(){for(var t=document.getElementsByTagName(&quot;script&quot;),e=t.length;e--;)if(t[e].getAttribute(&quot;cf-hash&quot;))return t[e]}();if(t&amp;&amp;t.previousSibling){var e,r,n,i,c=t.previousSibling,a=c.getAttribute(&quot;data-cfemail&quot;);if(a){for(e=&quot;&quot;,r=parseInt(a.substr(0,2),16),n=2;a.length-n;n+=2)i=parseInt(a.substr(n,2),16)^r,e+=String.fromCharCode(i);e=document.createTextNode(e),c.parentNode.replaceChild(e,c)}}}catch(u){}}();/* ]]&gt; */&lt;/script&gt;\nFormat settings, CABAC                   : Yes\nFormat settings, ReFrames                : 2 frames\nCodec ID                                 : avc1\nCodec ID/Info                            : Advanced Video Coding\nDuration                                 : 6mn 12s\nBit rate                                 : 2 504 Kbps\nWidth                                    : 1 920 pixels\nHeight                                   : 1 080 pixels\nDisplay aspect ratio                     : 16:9\nFrame rate mode                          : Variable\nFrame rate                               : 23.976 fps\nMinimum frame rate                       : 23.974 fps\nMaximum frame rate                       : 24.344 fps\nColor space                              : YUV\nChroma subsampling                       : 4:2:0\nBit depth                                : 8 bits\nScan type                                : Progressive\nBits/(Pixel*Frame)                       : 0.050\nStream size                              : 111 MiB (95%)\nEncoded date                             : UTC 2014-03-06 18:25:06\nTagged date                              : UTC 2014-03-06 18:25:06\n\nAudio\nID                                       : 2\nFormat                                   : AAC\nFormat/Info                              : Advanced Audio Codec\nFormat profile                           : LC\nCodec ID                                 : 40\nDuration                                 : 6mn 12s\nBit rate mode                            : Variable\nBit rate                                 : 126 Kbps\nChannel(s)                               : 2 channels\nChannel positions                        : Front: L R\nSampling rate                            : 44.1 KHz\nCompression mode                         : Lossy\nStream size                              : 5.57 MiB (5%)\nEncoded date                             : UTC 2014-03-06 18:24:58\nTagged date                              : UTC 2014-03-06 18:24:58\n\nShared By Sbyky\n","torrent":{"xt":"urn:btih:9e13074d13d4d9e051c8f945596b9ea095fa1593","amp;dn":"Rick+Ross+Ft.+Young+Jeezy+-+War+Ready+%5BExplicit%5D+1080p+%5BSbyky%5D","amp;tr":["udp%3A%2F%2Ftracker.openbittorrent.com%3A80","udp%3A%2F%2Fopen.demonii.com%3A1337","udp%3A%2F%2Ftracker.coppersurfer.tk%3A6969","udp%3A%2F%2Fexodus.desync.com%3A6969"],"infoHash":"9e13074d13d4d9e051c8f945596b9ea095fa1593","infoHashBuffer":{"type":"Buffer","data":[158,19,7,77,19,212,217,224,81,200,249,69,89,107,158,160,149,250,21,147]},"announce":[],"urlList":[]}}